<?xml version="1.0" standalone="no"?><!DOCTYPE svg PUBLIC "-//W3C//DTD SVG 1.1//EN" "http://www.w3.org/Graphics/SVG/1.1/DTD/svg11.dtd"><svg t="1693403626777" class="icon" viewBox="0 0 1024 1024" version="1.1" xmlns="http://www.w3.org/2000/svg" p-id="11303" xmlns:xlink="http://www.w3.org/1999/xlink" width="200" height="200"><path d="M576.394043 498.215385l104.940308-106.338462c6.695385 1.831385 13.705846 3.111385 21.011692 3.111385 45.331692 0 82.116923-37.257846 82.116923-83.219693 0-45.981538-36.785231-83.259077-82.116923-83.259077-45.371077 0-82.156308 37.277538-82.156308 83.259077 0 7.404308 1.28 14.434462 3.052308 21.267693l-104.940308 106.338461L184.714043 101.336615c-15.222154-15.419077-40.014769-8.172308-47.379692 0.33477-160.531692 184.300308-175.931077 452.864-46.434462 653.449846A138.200615 138.200615 0 0 0 0.000197 885.228308C0.019889 961.870769 61.341735 1024 136.940505 1024c61.873231 0 113.506462-41.806769 130.500923-98.875077 196.292923 117.228308 450.441846 96.846769 626.018461-62.129231 0.748308-0.708923-4.214154 17.762462 1.851077-2.953846 6.104615-20.775385-1.358769-39.581538-2.225231-40.841846L576.374351 498.215385z m441.225846-202.417231c-4.056615-76.603077-34.008615-149.897846-90.584615-206.040616C870.439582 33.673846 796.554043 3.997538 719.281428 0l-0.137846 1.28a30.208 30.208 0 0 0-22.882462 8.664615 29.873231 29.873231 0 0 0 0 42.496 30.326154 30.326154 0 0 0 28.041846 7.995077c59.746462 4.804923 116.263385 28.534154 159.862154 71.75877 43.559385 43.165538 67.426462 99.111385 72.349538 158.247384-2.166154 9.708308 0.433231 20.224 8.034462 27.766154 11.815385 11.697231 31.015385 11.638154 42.870154-0.118154 6.144-6.104615 9.058462-14.139077 8.841846-22.134154l1.358769-0.157538z m-168.369231-123.667692c-38.045538-37.710769-89.206154-55.729231-142.454153-54.784l-0.07877 0.787692a30.070154 30.070154 0 0 0-20.972307 8.664615 29.892923 29.892923 0 0 0 0.157538 42.476308c4.135385 4.135385 9.216 6.715077 14.513231 7.975385l-0.039385 0.452923c0.649846-0.039385 1.319385 0 1.988923-0.039385 3.761231 0.669538 7.660308 0.590769 11.401847-0.196923 35.052308 0.590769 68.036923 12.662154 92.652307 37.100308 27.293538 27.037538 39.325538 64.196923 37.277539 103.108923a29.814154 29.814154 0 0 0 8.349538 26.958769 30.542769 30.542769 0 0 0 42.889846 0.078769 29.833846 29.833846 0 0 0 5.96677-33.752615l3.584-0.452923c0.256-51.751385-17.880615-101.336615-55.236924-138.377846z" fill="#00CCB3" p-id="11304"></path></svg>