<?xml version="1.0" standalone="no"?><!DOCTYPE svg PUBLIC "-//W3C//DTD SVG 1.1//EN" "http://www.w3.org/Graphics/SVG/1.1/DTD/svg11.dtd"><svg t="1693403798188" class="icon" viewBox="0 0 1024 1024" version="1.1" xmlns="http://www.w3.org/2000/svg" p-id="4105" xmlns:xlink="http://www.w3.org/1999/xlink" width="200" height="200"><path d="M983.04 122.88l-5.12 158.72c0 20.48-15.36 35.84-35.84 35.84-20.48 0-35.84-15.36-35.84-35.84V209.92l-204.8 174.08c-15.36 10.24-35.84 10.24-51.2 0L440.32 174.08 102.4 430.08c-5.12 5.12-10.24 10.24-20.48 10.24s-20.48-5.12-30.72-15.36c-10.24-15.36-10.24-40.96 10.24-51.2l358.4-276.48c15.36-10.24 35.84-10.24 51.2 5.12l209.92 204.8 174.08-148.48h-76.8c-20.48 0-35.84-15.36-35.84-35.84 0-20.48 15.36-35.84 35.84-35.84l168.96 5.12c10.24 0 20.48 5.12 25.6 10.24 10.24 0 10.24 10.24 10.24 20.48zM168.96 645.12v312.32c0 15.36-15.36 30.72-35.84 30.72-20.48 0-35.84-15.36-35.84-30.72v-312.32c0-15.36 15.36-30.72 35.84-30.72 20.48 0 35.84 10.24 35.84 30.72z" p-id="4106"></path><path d="M353.28 419.84v527.36c0 20.48-15.36 35.84-35.84 35.84-20.48 0-35.84-15.36-35.84-35.84V419.84c0-20.48 15.36-35.84 35.84-35.84 15.36 0 35.84 15.36 35.84 35.84zM942.08 701.44c5.12-15.36 15.36-25.6 20.48-35.84 20.48-5.12 20.48-25.6 10.24-40.96l-61.44-102.4c-10.24-15.36-25.6-15.36-40.96-15.36-15.36 10.24-35.84 10.24-51.2 0-10.24-10.24-15.36-10.24-15.36-35.84-5.12-15.36-15.36-30.72-35.84-30.72h-122.88c-15.36 0-20.48 0-25.6 10.24-5.12 5.12-5.12 15.36-5.12 25.6 0 15.36 0 20.48-5.12 25.6-10.24 10.24-15.36 10.24-35.84 0-20.48-10.24-40.96 0-51.2 15.36l-61.44 102.4c-5.12 0-5.12 5.12-5.12 5.12-10.24 20.48-5.12 35.84 10.24 46.08 20.48 20.48 20.48 25.6 20.48 35.84 0 0 0 15.36-20.48 35.84-15.36 5.12-15.36 25.6-10.24 40.96l61.44 102.4c15.36 15.36 30.72 20.48 51.2 15.36 15.36-10.24 25.6-10.24 40.96 0 5.12 0 15.36 5.12 15.36 25.6 0 15.36 0 15.36 5.12 25.6 10.24 10.24 15.36 15.36 25.6 15.36H768c5.12 0 20.48-15.36 30.72-20.48 10.24-10.24 10.24-15.36 10.24-25.6 0-20.48 5.12-25.6 15.36-25.6 15.36 0 35.84 0 51.2 10.24 15.36 5.12 30.72 0 40.96-15.36l61.44-102.4c5.12-15.36 5.12-30.72-10.24-40.96-15.36-15.36-20.48-30.72-25.6-46.08z m-46.08 66.56l-35.84 51.2c-25.6-5.12-51.2 0-76.8 10.24-25.6 15.36-46.08 35.84-51.2 61.44h-51.2c-10.24-25.6-25.6-46.08-51.2-56.32-20.48-10.24-46.08-10.24-66.56-5.12l-35.84-51.2c20.48-20.48 25.6-40.96 25.6-66.56 0-20.48-10.24-51.2-25.6-66.56l30.72-56.32c25.6 10.24 51.2 0 76.8-15.36 20.48-10.24 40.96-30.72 51.2-51.2h61.44c5.12 25.6 20.48 46.08 40.96 51.2 25.6 15.36 51.2 15.36 76.8 10.24l35.84 61.44c-15.36 20.48-25.6 40.96-25.6 61.44-5.12 15.36 0 40.96 20.48 61.44z" p-id="4107"></path><path d="M716.8 609.28c-56.32 0-92.16 46.08-92.16 92.16 0 56.32 46.08 97.28 92.16 97.28 51.2 0 97.28-40.96 97.28-97.28s-46.08-92.16-97.28-92.16z m0 133.12c-25.6 0-40.96-15.36-40.96-40.96s15.36-40.96 40.96-40.96c15.36 0 25.6 5.12 30.72 10.24 5.12 10.24 10.24 20.48 10.24 30.72 0 25.6-15.36 40.96-40.96 40.96z" p-id="4108"></path></svg>